<?xml version="1.0" encoding="UTF-8" ?>
<!DOCTYPE svg PUBLIC "-//W3C//DTD SVG 1.1//EN" "http://www.w3.org/Graphics/SVG/1.1/DTD/svg11.dtd">
<svg width="86pt" height="87pt" viewBox="0 0 86 87" version="1.1" xmlns="http://www.w3.org/2000/svg">
<path fill="#ffffff" d=" M 0.00 0.00 L 40.61 0.00 C 34.01 1.58 27.00 2.46 21.19 6.26 C 13.40 11.27 6.54 18.30 3.26 27.10 C 2.00 30.93 1.19 34.88 0.00 38.73 L 0.00 0.00 Z" />
<path fill="#dad7d5" d=" M 40.61 0.00 L 45.37 0.00 C 54.69 1.58 64.03 4.55 71.56 10.44 C 75.28 13.38 77.56 17.63 79.97 21.62 C 82.50 25.74 83.36 30.62 86.00 34.69 L 86.00 52.12 C 82.92 57.04 82.32 63.11 78.74 67.75 C 72.61 76.09 63.49 82.47 53.29 84.58 C 50.63 85.20 48.06 86.13 45.47 87.00 L 41.55 87.00 C 36.83 85.09 31.74 84.55 26.91 83.05 C 15.64 78.56 6.73 68.84 2.84 57.39 C 1.90 54.37 0.97 51.35 0.00 48.34 L 0.00 38.73 C 1.19 34.88 2.00 30.93 3.26 27.10 C 6.54 18.30 13.40 11.27 21.19 6.26 C 27.00 2.46 34.01 1.58 40.61 0.00 Z" />
<path fill="#ffffff" d=" M 45.37 0.00 L 86.00 0.00 L 86.00 34.69 C 83.36 30.62 82.50 25.74 79.97 21.62 C 77.56 17.63 75.28 13.38 71.56 10.44 C 64.03 4.55 54.69 1.58 45.37 0.00 Z" />
<path fill="#231f20" d=" M 32.40 4.48 C 43.36 1.72 55.83 3.08 65.25 9.67 C 73.50 14.95 79.58 23.51 82.09 32.94 C 83.09 39.24 82.94 45.71 82.35 52.04 C 79.47 67.05 66.65 78.93 52.05 82.47 C 46.37 82.98 40.63 82.89 34.94 82.55 C 22.25 79.96 11.13 70.82 6.16 58.85 C 2.74 51.40 2.94 42.92 3.85 34.96 C 6.84 20.64 18.37 8.51 32.40 4.48 Z" />
<path fill="#ffffff" d=" M 26.96 26.77 C 31.76 22.78 37.52 20.05 43.06 17.28 C 48.94 19.65 54.39 23.30 59.77 26.71 C 58.88 28.72 57.52 30.67 57.65 32.96 C 57.63 39.65 57.64 46.35 57.65 53.05 C 57.57 55.56 58.84 57.81 59.72 60.09 C 54.95 62.56 50.46 65.53 45.76 68.13 C 44.11 69.07 41.89 69.00 40.29 67.97 C 35.69 65.42 31.27 62.56 26.63 60.08 C 27.36 58.12 28.48 56.20 28.45 54.03 C 28.50 47.01 28.46 39.99 28.47 32.97 C 28.60 30.78 27.59 28.80 26.96 26.77 Z" />
<path fill="#b2b1b1" d=" M 60.47 32.22 C 60.80 29.32 64.09 29.01 66.43 29.16 C 66.50 38.41 66.41 47.66 66.49 56.91 C 64.11 57.88 60.29 56.89 60.45 53.82 C 60.32 46.63 60.29 39.42 60.47 32.22 Z" />
<path fill="#f2f2f2" d=" M 20.50 29.36 C 22.57 29.10 24.82 29.82 25.52 31.97 C 25.69 38.65 25.53 45.34 25.60 52.02 C 25.78 53.71 25.02 55.22 24.36 56.72 C 23.37 56.70 21.37 56.64 20.38 56.61 C 20.38 47.53 20.18 38.44 20.50 29.36 Z" />
<path fill="#f8f8f8" d=" M 62.82 30.71 C 66.57 30.74 64.92 35.53 65.38 37.99 C 64.80 44.25 66.66 50.98 63.99 56.87 C 62.92 55.09 62.31 53.11 62.46 51.03 C 62.60 44.25 62.22 37.47 62.82 30.71 Z" />
<path fill="#ffffff" d=" M 0.00 48.34 C 0.97 51.35 1.90 54.37 2.84 57.39 C 6.73 68.84 15.64 78.56 26.91 83.05 C 31.74 84.55 36.83 85.09 41.55 87.00 L 0.00 87.00 L 0.00 48.34 Z" />
<path fill="#ffffff" d=" M 78.74 67.75 C 82.32 63.11 82.92 57.04 86.00 52.12 L 86.00 87.00 L 45.47 87.00 C 48.06 86.13 50.63 85.20 53.29 84.58 C 63.49 82.47 72.61 76.09 78.74 67.75 Z" />
</svg>
