<?xml version="1.0" encoding="UTF-8" ?>
<!DOCTYPE svg PUBLIC "-//W3C//DTD SVG 1.1//EN" "http://www.w3.org/Graphics/SVG/1.1/DTD/svg11.dtd">
<svg width="52pt" height="53pt" viewBox="0 0 52 53" version="1.1" xmlns="http://www.w3.org/2000/svg">
<path fill="#c4c5c7" d=" M 0.00 0.00 L 52.00 0.00 L 52.00 53.00 L 0.00 53.00 L 0.00 20.55 C 8.75 20.46 17.52 20.21 26.27 20.73 C 26.75 24.83 26.81 28.98 26.16 33.08 C 23.44 33.27 20.73 33.45 18.01 33.66 C 22.73 39.72 27.90 45.57 33.83 50.47 C 39.27 45.15 44.87 39.91 49.52 33.87 C 46.72 33.43 43.91 33.01 41.09 32.67 C 40.18 26.82 41.06 20.91 40.70 15.03 C 40.58 11.72 37.78 9.07 34.91 7.84 C 31.99 7.19 28.97 7.42 26.00 7.40 C 17.33 7.58 8.66 7.29 0.00 7.66 L 0.00 0.00 Z" />
<path fill="#59595b" d=" M 0.00 7.66 C 8.66 7.29 17.33 7.58 26.00 7.40 C 28.97 7.42 31.99 7.19 34.91 7.84 C 37.78 9.07 40.58 11.72 40.70 15.03 C 41.06 20.91 40.18 26.82 41.09 32.67 C 43.91 33.01 46.72 33.43 49.52 33.87 C 44.87 39.91 39.27 45.15 33.83 50.47 C 27.90 45.57 22.73 39.72 18.01 33.66 C 20.73 33.45 23.44 33.27 26.16 33.08 C 26.81 28.98 26.75 24.83 26.27 20.73 C 17.52 20.21 8.75 20.46 0.00 20.55 L 0.00 7.66 Z" />
</svg>
