<?xml version="1.0" encoding="UTF-8" ?>
<!DOCTYPE svg PUBLIC "-//W3C//DTD SVG 1.1//EN" "http://www.w3.org/Graphics/SVG/1.1/DTD/svg11.dtd">
<svg width="85pt" height="85pt" viewBox="0 0 85 85" version="1.1" xmlns="http://www.w3.org/2000/svg">
<path fill="#ffffff" d=" M 0.00 0.00 L 85.00 0.00 L 85.00 85.00 L 0.00 85.00 L 0.00 0.00 Z" />
<path fill="#d9ae47" d=" M 25.15 6.08 C 33.75 1.69 43.73 3.26 53.00 3.59 C 62.71 6.58 71.08 13.11 76.61 21.59 C 82.20 30.58 83.84 41.79 81.54 52.08 C 78.18 66.22 66.82 78.12 52.71 81.79 C 44.21 84.36 35.07 83.39 26.84 80.32 C 18.50 76.55 11.13 70.49 6.77 62.33 C 1.65 53.20 0.36 42.13 3.04 32.03 C 6.43 20.81 14.45 11.00 25.15 6.08 Z" />
<path fill="#ecd7a6" d=" M 26.62 17.69 C 32.06 17.13 37.56 17.60 43.02 17.46 C 51.78 17.59 60.55 17.15 69.30 17.71 L 67.78 19.57 C 60.53 19.10 53.26 19.38 46.00 19.33 C 39.28 19.40 32.52 18.90 25.85 19.93 C 32.83 21.30 39.95 20.46 47.01 20.65 C 53.96 20.49 60.95 21.07 67.88 20.30 C 67.74 26.00 65.45 31.28 63.27 36.44 C 59.90 36.55 56.52 36.60 53.15 36.62 L 53.19 38.43 C 58.07 38.37 62.96 38.39 67.84 38.62 C 65.42 48.52 61.06 57.80 58.04 67.51 C 43.74 67.78 29.43 67.77 15.14 67.51 C 16.36 61.12 18.12 54.82 20.66 48.83 L 20.98 50.89 C 20.40 54.40 19.09 57.73 18.01 61.11 C 29.00 61.62 40.00 61.14 50.99 61.40 C 53.52 61.30 56.23 61.64 58.61 60.64 C 61.84 53.93 63.66 46.61 66.17 39.61 C 60.70 39.62 55.22 39.63 49.80 38.70 C 50.80 37.37 51.80 36.04 52.80 34.71 C 56.08 34.67 59.37 34.63 62.65 34.60 C 64.01 31.00 65.08 27.31 66.02 23.59 C 52.58 23.47 39.14 23.51 25.70 23.57 C 23.19 29.77 21.08 36.13 19.00 42.48 C 24.95 42.54 30.91 42.56 36.86 42.64 C 36.52 44.21 36.19 45.78 35.85 47.34 C 31.05 47.32 26.25 47.41 21.45 47.47 C 21.80 47.02 22.49 46.12 22.84 45.68 C 26.86 45.17 30.94 45.57 34.99 45.48 C 34.82 44.98 34.50 43.98 34.34 43.48 C 28.69 44.62 22.90 44.39 17.28 43.22 C 19.55 35.96 21.70 28.59 25.15 21.79 C 25.62 20.42 25.79 18.91 26.62 17.69 Z" />
<path fill="#ffffff" d=" M 25.85 19.93 C 32.52 18.90 39.28 19.40 46.00 19.33 C 53.26 19.38 60.53 19.10 67.78 19.57 L 70.12 19.95 L 67.88 20.30 C 60.95 21.07 53.96 20.49 47.01 20.65 C 39.95 20.46 32.83 21.30 25.85 19.93 Z" />
<path fill="#ffffff" d=" M 25.70 23.57 C 39.14 23.51 52.58 23.47 66.02 23.59 C 65.08 27.31 64.01 31.00 62.65 34.60 C 59.37 34.63 56.08 34.67 52.80 34.71 C 51.80 36.04 50.80 37.37 49.80 38.70 C 55.22 39.63 60.70 39.62 66.17 39.61 C 63.66 46.61 61.84 53.93 58.61 60.64 C 56.23 61.64 53.52 61.30 50.99 61.40 C 40.00 61.14 29.00 61.62 18.01 61.11 C 19.09 57.73 20.40 54.40 20.98 50.89 C 21.16 49.75 21.31 48.61 21.45 47.47 C 26.25 47.41 31.05 47.32 35.85 47.34 C 36.19 45.78 36.52 44.21 36.86 42.64 C 30.91 42.56 24.95 42.54 19.00 42.48 C 21.08 36.13 23.19 29.77 25.70 23.57 Z" />
<path fill="#ffffff" d=" M 16.95 64.75 C 30.19 64.56 43.43 64.73 56.67 64.64 C 56.73 65.12 56.86 66.07 56.93 66.55 C 43.36 66.51 29.80 66.66 16.23 66.47 C 16.41 66.04 16.77 65.18 16.95 64.75 Z" />
</svg>
