<?xml version="1.0" encoding="UTF-8" ?>
<!DOCTYPE svg PUBLIC "-//W3C//DTD SVG 1.1//EN" "http://www.w3.org/Graphics/SVG/1.1/DTD/svg11.dtd">
<svg width="87pt" height="86pt" viewBox="0 0 87 86" version="1.1" xmlns="http://www.w3.org/2000/svg">
<path fill="#ffffff" d=" M 0.00 0.00 L 87.00 0.00 L 87.00 86.00 L 0.00 86.00 L 0.00 0.00 Z" />
<path fill="#ed1c24" d=" M 33.29 3.81 C 39.10 2.77 45.11 3.17 50.99 3.43 C 66.56 6.30 79.99 19.28 82.63 35.00 C 82.73 42.82 83.92 51.11 80.45 58.42 C 76.09 69.31 66.69 77.81 55.60 81.47 C 51.29 83.25 46.55 82.69 42.01 82.82 C 20.98 83.91 1.69 63.94 3.20 43.00 C 1.95 24.89 15.99 8.01 33.29 3.81 Z" />
<path fill="#f69396" d=" M 41.40 7.10 C 47.01 7.23 51.16 12.30 52.36 17.42 C 52.57 22.80 50.77 28.01 49.57 33.19 C 48.95 37.85 49.14 42.63 49.88 47.27 C 53.00 48.54 54.73 44.86 55.65 42.51 C 57.65 38.29 55.57 33.80 55.65 29.45 C 58.32 22.94 67.03 22.17 73.10 23.18 C 72.88 28.44 68.04 31.47 65.64 35.68 C 62.22 42.53 64.26 50.46 61.96 57.60 C 60.77 61.17 62.02 66.05 58.56 68.49 C 56.26 69.80 53.46 69.44 50.93 69.83 C 52.21 71.32 53.53 72.78 54.83 74.26 C 46.01 75.31 35.08 75.72 28.87 68.15 C 24.94 62.53 26.02 55.05 23.06 48.98 C 21.47 45.04 18.22 41.49 18.53 37.00 C 19.03 33.12 21.06 29.50 23.95 26.87 C 27.24 23.88 29.48 20.00 32.18 16.52 C 34.05 20.20 34.09 24.69 32.64 28.52 C 30.84 33.06 31.01 38.04 30.88 42.84 C 27.31 39.83 26.54 35.16 26.25 30.75 C 23.17 31.94 19.17 34.07 19.62 37.96 C 20.87 43.33 24.66 47.73 25.85 53.15 C 27.46 58.58 27.06 65.25 31.77 69.22 C 36.24 73.56 42.87 72.64 48.55 73.02 C 47.22 71.18 45.89 69.33 44.66 67.42 C 48.81 66.68 54.02 67.67 57.03 64.02 C 61.76 58.92 61.39 51.48 62.21 45.03 C 62.54 39.34 64.64 34.01 65.98 28.52 C 64.14 29.04 61.53 28.52 60.48 30.52 C 57.16 35.63 58.69 42.71 54.44 47.36 C 53.20 49.07 51.03 49.28 49.10 49.52 C 48.18 46.41 47.12 43.26 47.28 39.98 C 47.24 33.93 50.08 28.25 49.79 22.19 C 49.78 19.47 47.81 17.43 46.24 15.43 C 43.41 19.16 40.47 22.83 37.01 26.01 C 39.34 19.93 40.64 13.55 41.40 7.10 Z" />
<path fill="#ffffff" d=" M 37.01 26.01 C 40.47 22.83 43.41 19.16 46.24 15.43 C 47.81 17.43 49.78 19.47 49.79 22.19 C 50.08 28.25 47.24 33.93 47.28 39.98 C 47.12 43.26 48.18 46.41 49.10 49.52 C 51.03 49.28 53.20 49.07 54.44 47.36 C 58.69 42.71 57.16 35.63 60.48 30.52 C 61.53 28.52 64.14 29.04 65.98 28.52 C 64.64 34.01 62.54 39.34 62.21 45.03 C 61.39 51.48 61.76 58.92 57.03 64.02 C 54.02 67.67 48.81 66.68 44.66 67.42 C 45.89 69.33 47.22 71.18 48.55 73.02 C 42.87 72.64 36.24 73.56 31.77 69.22 C 27.06 65.25 27.46 58.58 25.85 53.15 C 24.66 47.73 20.87 43.33 19.62 37.96 C 19.17 34.07 23.17 31.94 26.25 30.75 C 26.54 35.16 27.31 39.83 30.88 42.84 C 32.84 44.89 34.74 46.99 36.67 49.06 C 36.99 44.54 34.55 40.48 34.42 36.01 C 34.32 32.55 33.86 28.35 37.01 26.01 Z" />
</svg>
