<?xml version="1.0" encoding="UTF-8" ?>
<!DOCTYPE svg PUBLIC "-//W3C//DTD SVG 1.1//EN" "http://www.w3.org/Graphics/SVG/1.1/DTD/svg11.dtd">
<svg width="85pt" height="85pt" viewBox="0 0 85 85" version="1.1" xmlns="http://www.w3.org/2000/svg">
<path fill="#ffffff" d=" M 0.00 0.00 L 85.00 0.00 L 85.00 85.00 L 0.00 85.00 L 0.00 0.00 Z" />
<path fill="#01baf2" d=" M 35.27 2.75 C 44.72 1.14 54.62 3.12 62.82 8.06 C 72.61 13.92 79.56 24.04 81.89 35.17 C 83.75 45.10 81.56 55.62 76.24 64.17 C 69.72 73.61 59.64 81.10 48.02 82.44 C 41.31 82.80 34.24 83.14 27.96 80.31 C 16.48 75.79 6.98 66.06 3.53 54.12 C -0.63 42.05 2.44 28.21 10.11 18.21 C 16.17 10.09 25.42 4.78 35.27 2.75 Z" />
<path fill="#ffffff" d=" M 36.48 20.96 C 35.75 18.76 31.85 15.71 34.72 13.92 C 39.87 16.16 45.54 15.47 50.80 14.03 C 50.14 16.92 48.80 19.57 47.72 22.31 C 47.27 24.86 47.72 27.47 48.02 30.01 C 50.53 28.27 53.30 26.73 55.25 24.33 C 56.67 21.82 57.63 19.08 59.08 16.58 C 59.89 18.32 60.62 20.10 61.28 21.90 C 62.48 22.15 63.68 22.39 64.88 22.63 C 64.74 24.20 64.61 25.78 64.48 27.35 C 66.68 27.76 68.86 28.28 70.99 28.95 C 69.59 29.75 68.18 30.58 66.67 31.15 C 64.71 31.79 62.21 30.80 60.71 32.61 C 57.09 35.98 53.47 39.35 50.09 42.97 C 53.36 45.65 56.42 48.58 59.68 51.28 C 62.41 53.82 66.46 53.72 69.42 55.89 C 67.92 56.82 66.16 57.40 64.83 58.60 C 64.62 59.90 64.77 61.22 64.77 62.52 C 63.33 62.52 61.88 62.51 60.45 62.50 C 60.39 64.51 60.31 66.53 60.16 68.54 C 56.88 67.31 56.43 63.94 55.70 60.99 C 53.69 58.35 50.59 56.79 47.75 55.19 C 47.65 57.76 47.45 60.33 47.61 62.90 C 48.70 65.76 50.51 68.37 50.78 71.52 C 45.32 69.35 39.24 69.15 33.81 71.50 C 34.02 68.81 35.21 66.44 36.53 64.15 C 36.93 61.20 36.30 58.18 36.20 55.21 C 33.47 56.94 30.34 58.41 28.36 61.03 C 27.62 64.00 27.07 67.35 23.79 68.59 C 23.59 66.65 23.47 64.70 23.39 62.74 C 22.14 62.63 20.89 62.52 19.64 62.40 C 20.16 58.93 17.69 56.65 15.13 54.85 C 18.28 53.94 21.84 53.69 24.37 51.37 C 27.36 48.70 30.60 46.31 33.37 43.40 C 34.04 41.79 32.22 40.82 31.30 39.81 C 28.39 37.46 25.89 34.60 22.77 32.53 C 19.77 31.20 16.51 30.53 13.60 28.97 C 15.55 28.28 17.54 27.72 19.55 27.23 C 19.39 25.58 19.25 23.92 19.13 22.25 C 20.51 22.30 21.88 22.34 23.26 22.39 C 23.61 20.12 24.15 17.88 24.85 15.69 C 26.84 18.06 27.60 21.01 28.45 23.90 C 30.38 26.62 33.54 28.16 36.24 30.01 C 36.31 27.01 36.90 23.95 36.48 20.96 Z" />
</svg>
