<?xml version="1.0" encoding="UTF-8" ?>
<!DOCTYPE svg PUBLIC "-//W3C//DTD SVG 1.1//EN" "http://www.w3.org/Graphics/SVG/1.1/DTD/svg11.dtd">
<svg width="85pt" height="86pt" viewBox="0 0 85 86" version="1.1" xmlns="http://www.w3.org/2000/svg">
<path fill="#ffffff" d=" M 0.00 0.00 L 85.00 0.00 L 85.00 86.00 L 0.00 86.00 L 0.00 0.00 Z" />
<path fill="#7f3f98" d=" M 37.43 2.73 C 48.99 1.36 61.02 5.59 69.53 13.46 C 76.60 19.85 80.78 28.96 82.29 38.27 C 83.74 49.46 79.82 61.05 72.50 69.54 C 65.99 77.12 56.55 81.86 46.74 83.37 C 34.63 84.80 21.94 80.30 13.43 71.56 C 6.93 65.25 3.05 56.60 1.66 47.73 C 0.25 35.64 4.80 22.99 13.46 14.47 C 19.78 7.90 28.50 4.09 37.43 2.73 Z" />
<path fill="#ffffff" d=" M 46.61 19.92 C 46.38 16.29 48.22 13.03 50.20 10.15 C 52.39 15.28 50.55 20.75 50.47 26.06 C 50.48 28.81 49.09 31.25 47.86 33.62 C 45.98 29.28 46.72 24.50 46.61 19.92 Z" />
<path fill="#ffffff" d=" M 34.06 26.05 C 37.58 22.71 40.92 19.05 45.29 16.78 C 46.13 23.46 44.30 30.07 44.60 36.70 C 49.46 42.26 56.24 45.76 61.41 51.05 C 58.48 53.96 55.39 56.72 52.07 59.18 C 47.60 62.57 43.54 66.55 38.52 69.15 C 38.24 63.97 38.91 58.84 39.46 53.71 C 39.88 51.71 38.02 50.51 36.72 49.39 C 31.97 45.55 27.05 41.93 22.52 37.83 C 25.84 33.40 30.12 29.87 34.06 26.05 Z" />
<path fill="#ffffff" d=" M 33.77 58.61 C 34.74 57.32 36.04 56.33 37.23 55.27 C 37.57 62.25 38.85 70.86 32.35 75.60 C 32.37 69.92 32.48 64.17 33.77 58.61 Z" />
</svg>
