<?xml version="1.0" encoding="UTF-8" ?>
<!DOCTYPE svg PUBLIC "-//W3C//DTD SVG 1.1//EN" "http://www.w3.org/Graphics/SVG/1.1/DTD/svg11.dtd">
<svg width="87pt" height="87pt" viewBox="0 0 87 87" version="1.1" xmlns="http://www.w3.org/2000/svg">
<path fill="#ffffff" d=" M 0.00 0.00 L 40.14 0.00 C 37.86 0.77 35.47 0.96 33.09 1.22 C 24.33 2.93 16.44 7.90 10.44 14.40 C 5.55 20.11 2.24 26.90 0.00 34.03 L 0.00 0.00 Z" />
<path fill="#242021" d=" M 40.14 0.00 L 45.84 0.00 C 48.69 1.09 51.77 0.93 54.74 1.30 C 68.47 5.11 79.98 15.83 84.73 29.26 C 86.56 32.99 85.46 37.33 87.00 41.15 L 87.00 46.85 C 85.76 49.95 86.21 53.34 85.53 56.54 C 83.50 62.07 80.89 67.50 76.89 71.90 C 71.09 79.70 62.04 84.08 53.00 87.00 L 33.15 87.00 C 25.54 84.20 17.82 80.86 12.23 74.77 C 6.14 69.18 2.82 61.47 0.00 53.88 L 0.00 34.03 C 2.24 26.90 5.55 20.11 10.44 14.40 C 16.44 7.90 24.33 2.93 33.09 1.22 C 35.47 0.96 37.86 0.77 40.14 0.00 Z" />
<path fill="#ffffff" d=" M 45.84 0.00 L 87.00 0.00 L 87.00 41.15 C 85.46 37.33 86.56 32.99 84.73 29.26 C 79.98 15.83 68.47 5.11 54.74 1.30 C 51.77 0.93 48.69 1.09 45.84 0.00 Z" />
<path fill="#fffcd6" d=" M 35.51 3.96 C 44.53 2.30 54.06 3.65 62.15 8.05 C 75.54 14.97 84.37 29.96 83.62 45.05 C 83.41 60.97 72.55 75.99 57.66 81.52 C 51.82 84.17 45.27 83.69 39.02 83.63 C 30.67 83.61 22.95 79.44 16.61 74.30 C 8.17 67.02 3.26 56.09 2.51 45.06 C 2.42 33.23 7.47 21.27 16.49 13.50 C 21.76 8.57 28.51 5.51 35.51 3.96 Z" />
<path fill="#242021" d=" M 26.02 22.60 C 30.97 19.82 36.10 16.75 41.95 16.65 C 48.58 16.16 54.80 19.12 60.17 22.70 C 62.22 22.18 65.02 19.02 66.39 21.90 C 65.81 23.59 65.02 25.20 64.29 26.83 C 68.67 33.17 71.77 41.06 69.84 48.84 C 69.03 53.29 66.25 56.96 64.50 61.02 C 64.84 63.07 66.18 64.85 66.47 66.94 C 64.06 66.74 61.78 65.12 59.37 65.49 C 55.13 67.63 50.95 70.50 46.04 70.63 C 42.57 70.65 38.93 71.03 35.63 69.70 C 32.45 68.71 29.71 66.80 26.73 65.40 C 24.43 65.30 22.32 66.64 20.06 66.96 C 20.34 64.68 21.45 62.56 21.61 60.27 C 19.78 56.55 17.39 53.02 16.55 48.90 C 16.22 45.36 16.16 41.75 16.62 38.21 C 17.75 34.20 19.86 30.58 21.86 26.96 C 21.20 25.00 20.47 23.05 20.11 21.01 C 22.15 21.23 24.14 21.76 26.02 22.60 Z" />
<path fill="#fffcd6" d=" M 28.90 25.80 C 33.82 20.36 41.62 19.86 48.41 20.81 C 51.86 21.57 54.97 23.37 57.82 25.41 C 56.87 27.80 53.03 30.28 55.12 32.82 C 57.56 32.71 59.21 30.30 61.22 29.11 C 65.08 33.01 66.98 38.57 66.49 44.02 C 66.88 49.21 64.94 54.49 61.17 58.11 C 58.79 56.69 56.51 55.13 54.30 53.47 C 55.72 49.84 57.27 46.02 60.79 43.91 C 57.05 41.32 55.67 37.01 53.93 33.05 C 51.93 31.51 49.17 31.35 47.15 29.85 C 45.46 28.15 44.50 25.89 43.06 23.99 C 41.93 26.29 41.43 29.46 38.73 30.48 C 36.86 31.48 34.74 31.65 32.67 31.66 C 31.44 29.69 30.13 27.77 28.90 25.80 Z" />
<path fill="#fffcd6" d=" M 24.54 29.16 C 27.04 30.51 29.39 32.12 31.76 33.68 C 31.35 35.98 30.55 38.25 29.13 40.13 C 26.70 41.81 23.84 42.69 21.22 44.02 C 23.93 45.16 27.01 45.69 29.34 47.58 C 30.52 49.38 31.27 51.44 31.76 53.53 C 29.49 55.23 27.30 57.27 24.43 57.86 C 22.53 54.89 20.24 51.76 20.34 48.06 C 20.51 44.45 20.07 40.82 20.55 37.23 C 21.44 34.35 23.05 31.76 24.54 29.16 Z" />
<path fill="#ffffff" d=" M 85.53 56.54 C 86.21 53.34 85.76 49.95 87.00 46.85 L 87.00 87.00 L 53.00 87.00 C 62.04 84.08 71.09 79.70 76.89 71.90 C 80.89 67.50 83.50 62.07 85.53 56.54 Z" />
<path fill="#ffffff" d=" M 0.00 53.88 C 2.82 61.47 6.14 69.18 12.23 74.77 C 17.82 80.86 25.54 84.20 33.15 87.00 L 0.00 87.00 L 0.00 53.88 Z" />
<path fill="#fffcd6" d=" M 32.84 55.70 C 34.99 54.81 37.08 56.56 39.02 57.30 C 41.74 58.33 42.01 61.56 43.01 63.88 C 45.11 59.77 48.13 55.41 53.26 55.32 C 54.72 57.63 56.29 59.87 57.85 62.11 C 54.61 64.29 51.12 66.74 47.05 66.70 C 43.69 66.62 40.31 66.91 36.96 66.50 C 33.80 65.68 31.07 63.80 28.31 62.12 C 29.80 59.96 31.16 57.71 32.84 55.70 Z" />
</svg>
