<?xml version="1.0" encoding="UTF-8" ?>
<!DOCTYPE svg PUBLIC "-//W3C//DTD SVG 1.1//EN" "http://www.w3.org/Graphics/SVG/1.1/DTD/svg11.dtd">
<svg width="87pt" height="86pt" viewBox="0 0 87 86" version="1.1" xmlns="http://www.w3.org/2000/svg">
<path fill="#ffffff" d=" M 0.00 0.00 L 87.00 0.00 L 87.00 86.00 L 0.00 86.00 L 0.00 0.00 Z" />
<path fill="#00a651" d=" M 31.52 4.46 C 35.54 3.14 39.82 3.33 43.99 3.28 C 62.33 2.41 79.37 17.16 82.63 34.93 C 82.86 40.95 83.10 47.03 82.41 53.02 C 79.68 63.75 72.34 73.28 62.60 78.58 C 53.61 83.57 42.64 85.11 32.73 82.23 C 20.50 79.03 10.20 69.76 5.62 57.98 C 2.33 51.10 3.21 43.31 3.41 35.94 C 5.86 21.31 17.39 8.73 31.52 4.46 Z" />
<path fill="#8dd5af" d=" M 46.85 12.00 C 51.27 10.99 56.65 13.42 57.67 18.10 C 58.25 22.11 62.36 23.47 65.52 25.02 C 62.52 29.35 57.29 30.63 53.01 33.19 C 54.42 33.50 55.90 33.86 57.31 33.33 C 61.62 32.09 65.90 30.72 70.18 29.36 C 69.64 30.63 69.09 31.90 68.43 33.11 C 68.11 33.08 67.46 33.00 67.13 32.97 C 62.05 32.25 56.72 34.49 53.78 38.73 C 58.67 39.26 62.69 36.47 66.30 33.59 C 65.09 35.52 64.15 37.78 62.25 39.16 C 57.72 41.10 52.86 39.53 48.18 39.48 C 42.65 40.17 37.16 41.14 31.59 41.52 C 37.37 38.63 44.16 39.39 50.13 36.96 C 47.90 36.27 45.63 35.72 43.40 35.03 C 47.95 32.59 52.91 31.01 57.37 28.39 C 52.76 28.02 48.07 28.15 43.62 29.49 C 36.02 31.26 28.65 34.02 21.96 38.06 C 26.89 31.08 36.47 31.51 43.13 27.12 C 44.90 26.36 46.51 24.31 48.58 24.92 C 52.84 27.22 57.57 22.70 56.63 18.30 C 56.37 15.64 53.48 14.87 51.53 13.73 C 52.06 16.00 52.97 18.27 52.82 20.63 C 52.09 21.66 51.15 22.52 50.25 23.40 C 50.66 21.64 51.01 19.87 51.42 18.12 C 49.80 16.15 48.24 14.14 46.85 12.00 Z" />
<path fill="#ffffff" d=" M 51.53 13.73 C 53.48 14.87 56.37 15.64 56.63 18.30 C 57.57 22.70 52.84 27.22 48.58 24.92 C 49.00 24.54 49.84 23.78 50.25 23.40 C 51.15 22.52 52.09 21.66 52.82 20.63 C 52.97 18.27 52.06 16.00 51.53 13.73 Z" />
<path fill="#ffffff" d=" M 43.62 29.49 C 48.07 28.15 52.76 28.02 57.37 28.39 C 52.91 31.01 47.95 32.59 43.40 35.03 C 45.63 35.72 47.90 36.27 50.13 36.96 C 44.16 39.39 37.37 38.63 31.59 41.52 L 30.94 41.88 C 26.63 43.84 24.73 48.49 25.24 53.03 C 29.80 52.35 31.97 47.47 36.37 46.41 C 41.30 45.02 47.88 45.32 50.83 50.18 C 54.06 55.86 53.31 64.76 47.11 68.15 C 41.36 71.34 34.29 71.53 28.04 69.85 C 23.19 68.58 19.99 64.43 16.90 60.79 C 15.78 53.09 15.07 43.39 21.96 38.06 C 28.65 34.02 36.02 31.26 43.62 29.49 Z" />
<path fill="#ffffff" d=" M 53.78 38.73 C 56.72 34.49 62.05 32.25 67.13 32.97 L 66.30 33.59 C 62.69 36.47 58.67 39.26 53.78 38.73 Z" />
<path fill="#8dd5af" d=" M 25.24 53.03 C 24.73 48.49 26.63 43.84 30.94 41.88 C 29.13 44.64 27.00 47.39 26.93 50.85 C 31.31 47.36 36.18 43.83 42.02 43.74 C 46.31 44.04 50.27 46.74 52.62 50.27 C 55.25 54.83 53.91 60.24 54.26 65.21 C 54.62 69.46 51.64 74.49 47.03 74.53 C 43.36 73.78 39.91 71.86 36.04 72.27 C 28.22 72.80 19.02 68.97 16.90 60.79 C 19.99 64.43 23.19 68.58 28.04 69.85 C 34.29 71.53 41.36 71.34 47.11 68.15 C 53.31 64.76 54.06 55.86 50.83 50.18 C 47.88 45.32 41.30 45.02 36.37 46.41 C 31.97 47.47 29.80 52.35 25.24 53.03 Z" />
<path fill="#00a651" d=" M 35.39 54.41 C 37.53 53.10 40.25 51.35 42.71 52.96 C 46.47 54.91 46.49 61.09 42.69 63.00 C 40.25 64.64 37.53 62.87 35.40 61.56 C 35.30 59.18 35.31 56.79 35.39 54.41 Z" />
</svg>
